<mxfile host="app.diagrams.net" modified="2023-11-28T21:35:41.966Z" agent="Mozilla/5.0 (Windows NT 10.0; Win64; x64) AppleWebKit/537.36 (KHTML, like Gecko) Chrome/119.0.0.0 Safari/537.36" etag="dKbFYT2tfPPn6zzX_XLs" version="22.1.4" type="device">
  <diagram name="Страница — 1" id="27Dga72RAfMYqPkfEWNl">
    <mxGraphModel dx="1050" dy="539" grid="1" gridSize="10" guides="1" tooltips="1" connect="1" arrows="1" fold="1" page="1" pageScale="1" pageWidth="827" pageHeight="1169" math="0" shadow="0">
      <root>
        <mxCell id="0" />
        <mxCell id="1" parent="0" />
        <mxCell id="ewFjhbMQHwjGbqh-EtSD-12" value="" style="rounded=1;whiteSpace=wrap;html=1;" vertex="1" parent="1">
          <mxGeometry x="380" y="180" width="120" height="160" as="geometry" />
        </mxCell>
        <mxCell id="ewFjhbMQHwjGbqh-EtSD-13" value="Переглянути інформацію про якість освітлення" style="text;html=1;strokeColor=none;fillColor=none;align=center;verticalAlign=middle;whiteSpace=wrap;rounded=0;" vertex="1" parent="1">
          <mxGeometry x="410" y="210" width="60" height="30" as="geometry" />
        </mxCell>
        <mxCell id="ewFjhbMQHwjGbqh-EtSD-14" value="Переглянути" style="strokeWidth=1;shadow=0;dashed=0;align=center;html=1;shape=mxgraph.mockup.forms.rrect;rSize=5;strokeColor=none;fontColor=#ffffff;fillColor=#3C6E96;fontSize=16;fontStyle=1;" vertex="1" parent="1">
          <mxGeometry x="390" y="275" width="100" height="30" as="geometry" />
        </mxCell>
      </root>
    </mxGraphModel>
  </diagram>
</mxfile>
